<svg id="gradient" xmlns="http://www.w3.org/2000/svg" xmlns:xlink="http://www.w3.org/1999/xlink" viewBox="0 0 512 512"><defs><linearGradient id="linear-gradient" x1="-92.089" y1="248" x2="390.695" y2="248" gradientUnits="userSpaceOnUse"><stop offset="0" stop-color="#3bfff1" id="id_102"></stop><stop offset="0.116" stop-color="#41faf1" id="id_103"></stop><stop offset="0.272" stop-color="#52ebf3" id="id_104"></stop><stop offset="0.45" stop-color="#6ed2f5" id="id_105"></stop><stop offset="0.646" stop-color="#e8929a" id="id_106"></stop><stop offset="0.852" stop-color="#e36b75" id="id_107"></stop><stop offset="1" stop-color="#de505c" id="id_108"></stop></linearGradient></defs><path d="M478.818,232.992a224.73,224.73,0,0,0-52.371-122.316,23.98,23.98,0,0,0-34.142-32.433,222.165,222.165,0,0,0-113.3-45.066,24,24,0,0,0-46.012,0,222.039,222.039,0,0,0-113.3,45.062,23.981,23.981,0,0,0-34.138,32.435,224,224,0,1,0,393.27,168.333,24,24,0,0,0,0-46.015ZM277.47,368.411a7.992,7.992,0,0,0-3.127,1.932L254.98,389.706l-18.543-12.362a8,8,0,0,0-9.435.409l-40,32A8,8,0,0,0,184,416v28.687l-4.668,4.668a207.686,207.686,0,0,1-39.917-21.184l3.949-23.694L172.8,382.4A8,8,0,0,0,176,376V344a8,8,0,0,0-8-8H144V312a8,8,0,0,0-3.563-6.656l-18.916-12.611,6.068-18.2a8,8,0,0,0-.933-6.968l-16-24a8,8,0,0,0-9.186-3.151L78.7,248H58.667l-10.079-7.559a208.021,208.021,0,0,1,6.246-37.407A38.709,38.709,0,0,0,106.547,214.2l5.15-3.09a38.571,38.571,0,0,1,57.793,39.973l-4.6,25.281a46.506,46.506,0,0,0,64.644,50.817L259.1,314.045a30.67,30.67,0,0,1,33.939,6.3,30.294,30.294,0,0,1,8.693,25.338l-1.909,15.277Zm-171.7-246.636a23.859,23.859,0,0,0,11.474-2.926,220.291,220.291,0,0,0,42.843,27.186,23.979,23.979,0,0,0,8.875,16.654,309.087,309.087,0,0,0-6.675,36.4,55.47,55.47,0,0,0-9.254-5.065,54.709,54.709,0,0,0-49.573,3.364l-5.15,3.09A22.658,22.658,0,0,1,64,181.052v-5.126a207.6,207.6,0,0,1,34.169-55.394A23.876,23.876,0,0,0,105.775,121.775ZM248,62.624v74.752a24.124,24.124,0,0,0-14.156,13.406,205.066,205.066,0,0,1-25.952-4.539c.069-.739.108-1.486.108-2.243a23.98,23.98,0,0,0-9.788-19.325,291.36,291.36,0,0,1,40.015-68.564A24.079,24.079,0,0,0,248,62.624Zm165.827,57.91a208.672,208.672,0,0,1,48.992,113.3A24.122,24.122,0,0,0,449.376,248H366.624a24.111,24.111,0,0,0-14.649-14.632,308.61,308.61,0,0,0-7.987-66.74A24.038,24.038,0,0,0,360,144c0-.684-.036-1.36-.092-2.03a220.619,220.619,0,0,0,34.833-23.127,23.936,23.936,0,0,0,19.086,1.691Zm-109.48,188.5A46.8,46.8,0,0,0,264,296.053V278.624A24.114,24.114,0,0,0,278.624,264h42.752a24.119,24.119,0,0,0,14.585,14.611,290.633,290.633,0,0,1-10.974,76.467q-3.974-1.308-8-2.467l.618-4.942A46.186,46.186,0,0,0,304.347,309.034ZM184,136a8,8,0,1,1-8,8A8.009,8.009,0,0,1,184,136Zm.128,32a23.924,23.924,0,0,0,16.79-6.992,220.866,220.866,0,0,0,32.065,5.781A24.1,24.1,0,0,0,248,182.624v50.752A24.114,24.114,0,0,0,233.376,248h-47.4a54.243,54.243,0,0,0-9.071-34.259A293.215,293.215,0,0,1,184.128,168Zm94.886-1.2a220.809,220.809,0,0,0,38.468-7.544,24.1,24.1,0,0,0,10.013,7.187,292.562,292.562,0,0,1,8.48,66.946A24.117,24.117,0,0,0,321.376,248H278.624A24.114,24.114,0,0,0,264,233.376V182.624A24.1,24.1,0,0,0,279.014,166.8ZM336,152a8,8,0,1,1,8-8A8.009,8.009,0,0,1,336,152ZM256,264a8,8,0,1,1,8-8A8.009,8.009,0,0,1,256,264Zm0-112a8,8,0,1,1-8,8A8.009,8.009,0,0,1,256,152ZM180.636,279.227,183.4,264h49.972A24.114,24.114,0,0,0,248,278.624v22.844l-24.96,11.093a30.506,30.506,0,0,1-42.4-33.334ZM344,264a8,8,0,1,1,8-8A8.009,8.009,0,0,1,344,264Zm40.043-157.072a204.669,204.669,0,0,1-30.768,20.437,23.925,23.925,0,0,0-23.754-6.469,307.1,307.1,0,0,0-39.705-70.159A206.211,206.211,0,0,1,383.105,91.35a23.928,23.928,0,0,0,.938,15.578ZM273.774,56.11a291.231,291.231,0,0,1,42.362,74.436A23.864,23.864,0,0,0,312,144c0,.057,0,.112,0,.169a204.717,204.717,0,0,1-33.846,6.617A24.122,24.122,0,0,0,264,137.376V62.624A24.068,24.068,0,0,0,273.774,56.11ZM182.82,120.03a23.99,23.99,0,0,0-18.5,10.257,204.289,204.289,0,0,1-36.366-23.353,23.928,23.928,0,0,0,.94-15.583A206.056,206.056,0,0,1,222.166,50.74,307.341,307.341,0,0,0,182.82,120.03ZM320.206,370.348q-1.892,5.5-4.008,10.946a21.248,21.248,0,0,1-1.454-10.753l.231-1.843Q317.6,369.49,320.206,370.348Zm14.992,5.613A204.293,204.293,0,0,1,353.942,385l-2.2,2.449a21.389,21.389,0,0,1-23.072,5.775Q332.2,384.662,335.2,375.961Zm36.264-10.433L364.92,372.8a220.278,220.278,0,0,0-24.878-12.142,306.511,306.511,0,0,0,11.918-82.018A24.11,24.11,0,0,0,366.624,264h82.752a24.122,24.122,0,0,0,13.443,14.171A206.883,206.883,0,0,1,445,342.993,74.448,74.448,0,0,0,371.462,365.528ZM406.225,89.775a8,8,0,1,1-8,8A8.009,8.009,0,0,1,406.225,89.775ZM256,32a8,8,0,1,1-8,8A8.009,8.009,0,0,1,256,32ZM105.775,89.775a8,8,0,1,1-8,8A8.009,8.009,0,0,1,105.775,89.775ZM48.051,260.038,51.2,262.4A8,8,0,0,0,56,264H80a8,8,0,0,0,2.53-.411l18.2-6.068,10.44,15.661-6.762,20.288a8,8,0,0,0,3.151,9.186L128,316.281V344a8,8,0,0,0,8,8h24v20l-28.8,21.6a8,8,0,0,0-3.091,5.085l-3.123,18.739A207.7,207.7,0,0,1,48.051,260.038ZM196.114,455.2l1.543-1.542A8,8,0,0,0,200,448V419.845L232.43,393.9l19.132,12.755a8,8,0,0,0,10.095-1l22.664-22.665,14.59-4.863a37.32,37.32,0,0,0,58.616,25.444l-5.372,26.858a8,8,0,0,0,3.407,8.225l.006,0A208.234,208.234,0,0,1,196.114,455.2ZM397.9,408.085a209.032,209.032,0,0,1-27.173,21.449l-1.827-1.219,6.949-34.746a7.99,7.99,0,0,0-1.887-6.9l9.4-10.441a58.512,58.512,0,0,1,54.128-18.5A208.592,208.592,0,0,1,397.9,408.085ZM472,264a8,8,0,1,1,8-8A8.009,8.009,0,0,1,472,264Z" style="fill:url(#linear-gradient)" id="id_101"></path></svg>